<?xml version="1.0" encoding="utf-8"?>
<!-- Generator: Adobe Illustrator 19.0.0, SVG Export Plug-In . SVG Version: 6.00 Build 0)  -->
<svg version="1.1" id="Layer_1" xmlns="http://www.w3.org/2000/svg"  x="0px" y="0px"
	 viewBox="0 0 22 21.6" style="enable-background:new 0 0 22 21.6;" xml:space="preserve">
<style type="text/css">
	.st0{fill:#FFFFFF;}
</style>
<path class="st0" d="M21,19.8l-6.1-6.1c1.1-1.4,1.8-3.1,1.8-5c0-4.3-3.5-7.8-7.8-7.8c-4.3,0-7.8,3.5-7.8,7.8c0,4.3,3.5,7.8,7.8,7.8
	c2,0,3.8-0.7,5.1-1.9l6.1,6.1c0.3,0.2,0.6,0.2,0.9,0C21.2,20.4,21.2,20,21,19.8L21,19.8z M15.5,8.7c0,3.6-2.9,6.6-6.6,6.6
	c-3.6,0-6.6-2.9-6.6-6.6c0-3.6,2.9-6.6,6.6-6.6C12.5,2.1,15.5,5,15.5,8.7L15.5,8.7z"/>
</svg>
