<?xml version="1.0" encoding="utf-8"?>
<!-- Generator: Adobe Illustrator 19.0.0, SVG Export Plug-In . SVG Version: 6.00 Build 0)  -->
<svg version="1.1" id="Layer_1" xmlns="http://www.w3.org/2000/svg"  x="0px" y="0px"
	 viewBox="0 0 31 41.1" style="enable-background:new 0 0 31 41.1;" xml:space="preserve">
<style type="text/css">
	.st0{fill:#FFFFFF;}
</style>
<path class="st0" d="M13.2,1.2c0.8,0,2,0.1,2.6,0.1c0.5,0.1,1.3,0.3,1.5,0.4c1.1,0.3,2.4,0.4,3.4,0.9c0.8,0.3,1.5,0.6,2.2,1.1
	c0.3,0.2,0.6,0.6,0.9,0.9c0.3,0.3,0.7,0.6,0.9,0.9c0.1,0.2,0.2,0.5,0.4,0.8c0.3,0.4,0.6,0.8,0.8,1.4c0.3,0.7,0.6,1.6,0.9,2.4
	c0.3,0.8,0.5,1.4,0.7,2.3c0.1,0.6,0.2,1.5,0.2,2.4c0,0.4-0.1,0.7-0.2,1.1c0,0.4,0,0.9-0.1,1.2c-0.1,0.4-0.5,0.8-0.5,1.2
	c0,0.2,0.3,0.6,0.3,0.9c0,0.3-0.2,0.6-0.1,0.8c0,0.3,0.4,0.6,0.5,0.8c0.2,0.6,0.2,1.2,0.1,1.7c-0.1,0.8-0.2,1.5-0.6,2
	c-0.1,0.2-0.3,0.4-0.3,0.5c0,0.4,0.3,0.6,0.5,0.8c0.6,0.1,1.2-0.1,1.7,0c0.2,0.7,0.1,1.7,0.2,2.5c0.2,0.3,0.6,0.4,1,0.4v1.4
	c-0.2,0-0.2,0.2-0.3,0.2c-0.3,0-0.4-0.3-0.7-0.3c-0.5,0.4,0.2,1.1,0.2,1.6c0.1,0.5-0.3,1.1-0.5,1.6c-0.1,0.3-0.4,0.5-0.5,0.7
	c-0.1,0.2,0,0.4-0.1,0.6c-0.1,0.2-0.4,0.5-0.5,0.5c-0.3,0-0.6-0.2-0.7-0.3c-0.3-0.1-0.6-0.1-0.9-0.1c-2.1-0.2-4.4,0-6.5,0.4
	c-1,0.2-2,0.5-3,0.8c-0.3,0.1-0.7,0.2-1,0.2c-0.5,0.2-1.1,0.5-1.6,0.7c-0.6,0.2-1.2,0.3-1.7,0.5c-0.7,0.2-1.4,0.7-2,1
	c-0.3,0.2-0.7,0.3-1,0.5c-0.3,0.2-0.7,0.5-1,0.5c-0.4,0.1-0.9,0.1-1.3,0.1c-0.3,0-0.6-0.1-0.8-0.1c-0.3,0-0.6,0.3-0.9,0.5
	c-0.1,0.1-0.4,0.1-0.5,0.1c-0.2,0-0.3,0.2-0.5,0c-0.2-0.7-0.1-2.2-0.2-3c-0.2-0.4-0.8-0.4-1.3-0.5c-0.2,0-0.3-0.2-0.4-0.2
	c-0.3,0-0.5,0.1-0.7,0.1v-0.5c0.5-0.2,0.8-0.7,1.2-1.1c0.4-0.5,0.9-1,1.3-1.6c0.3-0.3,0.5-0.7,0.9-0.9c0.5-0.2,0.7-0.7,1.2-1.2
	c0.2-0.3,0.7-1,1-1c0.2,0,0.5,0.4,0.7,0.5c0.2,0.3,0.3,0.5,0.6,0.6c0.2-0.3,0-0.6-0.1-0.9c-0.1-0.6,0-1.4-0.1-1.9
	c-0.4-0.2-0.9-0.1-1.4-0.1c-0.4,0-0.8-0.1-1.2-0.2c-0.8-0.1-1.5-0.1-2-0.5c-0.6-0.4-0.9-1.1-0.7-2.2c0.1-0.3,0.3-0.6,0.3-1
	c0-0.4-0.5-0.4-0.6-0.8c0-0.3,0.2-0.5,0.3-0.8c0-0.1-0.1-0.3,0-0.5c0-0.3,0.3-0.5,0.2-0.8c-0.1-0.2-0.4-0.1-0.7-0.2
	c-0.3-0.1-0.5-0.2-0.8-0.5c-0.3-0.5-0.4-1,0-1.6c0.8-0.7,1.7-1.7,2.5-2.7c0.2-0.3,0.6-0.8,0.6-1.1c0-0.5-0.6-0.7-0.6-1.2
	C3.7,13.9,3.9,13.4,4,13c0.1-0.5,0.2-0.9,0.3-1.3c0.1-0.3,0.4-0.6,0.4-0.9C4.9,9.9,4.5,8.9,4.8,8c0.2-0.6,0.7-1.2,1-1.6
	C6,6.2,6.3,6,6.6,5.8c0.3-0.2,0.6-0.4,0.7-0.7c0.1-0.3,0-0.6,0-0.9C7.4,3.6,7.6,3.1,8,2.5c0.6-0.4,1.7-0.8,2.1-0.9
	C10.6,1.4,12.4,1.2,13.2,1.2L13.2,1.2z"/>
</svg>
