<?xml version="1.0" encoding="utf-8"?>
<!-- Generator: Adobe Illustrator 19.2.1, SVG Export Plug-In . SVG Version: 6.00 Build 0)  -->
<!DOCTYPE svg PUBLIC "-//W3C//DTD SVG 1.1//EN" "http://www.w3.org/Graphics/SVG/1.1/DTD/svg11.dtd">
<svg xmlns:xlink="http://www.w3.org/1999/xlink" version="1.1" id="Layer_1" xmlns="http://www.w3.org/2000/svg" x="0px" y="0px"
	 viewBox="0 0 1920 2750" enable-background="new 0 0 1920 2750" xml:space="preserve">
<g>
	<defs>
		<rect id="SVGID_1_" x="1244" y="1232" width="20.1" height="20"/>
	</defs>
	<clipPath id="SVGID_2_">
		<use xlink:href="#SVGID_1_"  overflow="visible"/>
	</clipPath>
	<path clip-path="url(#SVGID_2_)" fill="#FFFFFF" d="M1258.4,1239.8c0,3.6-2.9,6.6-6.6,6.6s-6.6-2.9-6.6-6.6s2.9-6.6,6.6-6.6
		S1258.4,1236.2,1258.4,1239.8 M1263.9,1250.9l-6.1-6.1c1.1-1.4,1.8-3.1,1.8-5c0-4.3-3.5-7.8-7.8-7.8s-7.8,3.5-7.8,7.8
		s3.5,7.8,7.8,7.8c2,0,3.7-0.7,5.1-1.9l6.1,6.1c0.2,0.2,0.6,0.2,0.9,0C1264.1,1251.6,1264.1,1251.2,1263.9,1250.9"/>
</g>
</svg>
