<?xml version="1.0" encoding="utf-8"?>
<!-- Generator: Adobe Illustrator 19.0.0, SVG Export Plug-In . SVG Version: 6.00 Build 0)  -->
<svg version="1.1" id="Layer_1" xmlns="http://www.w3.org/2000/svg"  x="0px" y="0px"
	 viewBox="219.5 326 392.5 246" style="enable-background:new 219.5 326 392.5 246;" xml:space="preserve">
<style type="text/css">
	.st0{fill:url(#SVGID_1_);}
	.st1{fill:url(#SVGID_2_);}
	.st2{fill:url(#SVGID_3_);}
	.st3{fill:url(#SVGID_4_);}
	.st4{fill:url(#SVGID_5_);}
	.st5{fill:url(#SVGID_6_);}
	.st6{fill:url(#SVGID_7_);}
	.st7{fill:url(#SVGID_8_);}
	.st8{fill:url(#SVGID_9_);}
	.st9{fill:url(#SVGID_10_);}
	.st10{fill:url(#SVGID_11_);}
	.st11{fill:url(#SVGID_12_);}
	.st12{fill:#FFFFFF;}
</style>
<linearGradient id="SVGID_1_" gradientUnits="userSpaceOnUse" x1="56.269" y1="383.2831" x2="145.2274" y2="434.6432" gradientTransform="matrix(-1 0 0 1 578.2449 2.4)">
	<stop  offset="0" style="stop-color:#183E94"/>
	<stop  offset="1" style="stop-color:#07B2FB"/>
</linearGradient>
<path class="st0" d="M448.4,463.6h8.6c10.5,0,19.8-6.5,23.4-16.4l29.8-82l-13.6-4.9c-5.3-1.9-11.1,0.8-13,6.1L448.4,463.6z"/>
<linearGradient id="SVGID_2_" gradientUnits="userSpaceOnUse" x1="510.3427" y1="412.1081" x2="448.0341" y2="412.1081" gradientTransform="matrix(1 0 0 1 0 2.4)">
	<stop  offset="0" style="stop-color:#183E94"/>
	<stop  offset="1" style="stop-color:#07D2FB"/>
</linearGradient>
<path class="st1" d="M448.1,463.6c0,0,2,0,5.4,0c1.7,0,3.8,0.1,6.2-0.2c2.4-0.3,5-1,7.7-2.3s5.3-3.2,7.5-5.7s4.1-5.6,5.2-9.1
	c2.5-7,5.2-14.4,7.8-21.8c2.7-7.4,5.3-14.9,7.8-21.8c1.3-3.5,2.5-6.8,3.7-10s2.3-6.2,3.3-9c4.2-11.1,7.1-18.4,7.1-18.4h0.1
	c0,0-2.5,7.5-6.4,18.7c-1,2.8-2.1,5.8-3.2,9s-2.4,6.5-3.6,10c-2.5,7-5.3,14.3-8,21.7c-2.7,7.4-5.5,14.8-8,21.7
	c-1.2,3.5-3.1,6.7-5.4,9.2s-5,4.4-7.7,5.7s-5.4,1.9-7.8,2.2c-2.4,0.3-4.5,0.2-6.2,0.2c-3.5,0-5.4,0-5.4,0v-0.1L448.1,463.6
	L448.1,463.6z"/>
<linearGradient id="SVGID_3_" gradientUnits="userSpaceOnUse" x1="447.9842" y1="409.3586" x2="496.3484" y2="409.3586" gradientTransform="matrix(1 0 0 1 0 2.4)">
	<stop  offset="0" style="stop-color:#183E94"/>
	<stop  offset="1" style="stop-color:#07D2FB"/>
</linearGradient>
<path class="st2" d="M496.3,360.4c0,0-0.1,0-0.3-0.1c-0.2,0-0.5-0.2-1-0.2c-0.8-0.2-2.1-0.3-3.7,0s-3.4,1-5.1,2.6
	c-0.8,0.7-1.5,1.7-2.1,2.8c-0.5,1.1-0.9,2.4-1.4,3.7c-0.9,2.6-1.9,5.5-3,8.5s-2.2,6.2-3.4,9.5c-2.4,6.6-5,13.6-7.6,20.6
	c-10.3,28-20.7,56-20.7,56s0,0-0.1,0c0,0,0,0,0-0.1c0,0,10-28.1,20-56.2c2.5-7,5-14.1,7.4-20.6c1.2-3.3,2.3-6.5,3.5-9.5
	c1.1-3,2.2-5.8,3.2-8.5c0.5-1.3,0.9-2.6,1.5-3.8s1.4-2.2,2.3-2.9c0.9-0.8,1.8-1.3,2.7-1.7c0.9-0.4,1.8-0.6,2.7-0.7
	c1.7-0.2,3,0,3.8,0.2c0.4,0.1,0.7,0.2,1,0.3C496.3,360.2,496.4,360.3,496.3,360.4C496.4,360.3,496.4,360.3,496.3,360.4
	C496.4,360.4,496.4,360.4,496.3,360.4z"/>
<linearGradient id="SVGID_4_" gradientUnits="userSpaceOnUse" x1="189.6563" y1="390.5069" x2="391.6165" y2="507.1086" gradientTransform="matrix(-1 0 0 1 578.2449 2.4)">
	<stop  offset="0" style="stop-color:#183E94"/>
	<stop  offset="1" style="stop-color:#07D2FB"/>
</linearGradient>
<path class="st3" d="M222.6,571.9h32.5c10.4,0,19.7-6.5,23.3-16.3l78.9-216.8l-28.5-10.4c-8.5-3.1-18,1.3-21.1,9.8L222.6,571.9z"/>
<linearGradient id="SVGID_5_" gradientUnits="userSpaceOnUse" x1="222.45" y1="452.8697" x2="357.05" y2="452.8697" gradientTransform="matrix(1 0 0 1 0 2.4)">
	<stop  offset="0" style="stop-color:#183E94"/>
	<stop  offset="1" style="stop-color:#07D2FB"/>
</linearGradient>
<path class="st4" d="M222.5,571.8c0,0,4.6,0,12.6,0c4,0,8.9,0,14.5,0c1.4,0,2.8,0,4.3,0s3,0,4.5-0.3c3.1-0.4,6.2-1.5,9.2-3.3
	c1.4-0.9,2.9-1.9,4.2-3.2c1.3-1.2,2.5-2.6,3.5-4.1s1.9-3.2,2.6-5s1.3-3.6,2-5.5c2.7-7.4,5.5-15.2,8.4-23.3
	c5.8-16.2,12.1-33.4,18.3-50.7c6.2-17.2,12.5-34.5,18.3-50.7c2.9-8.1,5.8-15.9,8.5-23.3c2.7-7.4,5.3-14.4,7.7-20.8
	c4.8-12.9,8.7-23.7,11.5-31.2s4.4-11.8,4.4-11.8h0.1c0,0-1.5,4.3-4.2,11.9s-6.6,18.3-11.2,31.3c-2.3,6.5-4.8,13.5-7.5,20.9
	c-2.7,7.4-5.5,15.2-8.5,23.3c-5.9,16.1-12.2,33.4-18.5,50.6c-6.3,17.2-12.6,34.4-18.5,50.6c-3,8.1-5.8,15.9-8.5,23.3
	c-0.7,1.8-1.3,3.7-2,5.5c-0.7,1.8-1.6,3.5-2.7,5c-1,1.6-2.3,2.9-3.6,4.2c-1.3,1.2-2.8,2.3-4.2,3.2c-3,1.7-6.2,2.8-9.3,3.3
	c-1.6,0.2-3.1,0.3-4.6,0.2c-1.5,0-2.9,0-4.3,0c-5.6,0-10.5,0-14.5,0C227,571.9,222.5,571.9,222.5,571.8L222.5,571.8z"/>
<linearGradient id="SVGID_6_" gradientUnits="userSpaceOnUse" x1="328.9875" y1="447.1199" x2="221.8552" y2="447.1199" gradientTransform="matrix(1 0 0 1 0 2.4)">
	<stop  offset="0" style="stop-color:#183E94"/>
	<stop  offset="1" style="stop-color:#07D2FB"/>
</linearGradient>
<path class="st5" d="M328.4,328.9c0,0-0.3-0.1-0.8-0.2c-0.2-0.1-0.6-0.2-0.9-0.3c-0.4-0.1-0.8-0.2-1.2-0.2c-1.9-0.3-4.9-0.4-8.3,0.8
	c-1.7,0.6-3.5,1.7-5.1,3.2s-3.1,3.4-4,5.8c-1.8,4.9-3.8,10.4-6.1,16.5c-8.8,24.2-20.6,56.4-32.4,88.6
	C245.9,507.5,222.3,572,222.3,572s23.4-64.5,46.7-129c11.7-32.3,23.4-64.5,32.1-88.7c2.2-6,4.2-11.6,6-16.5c1-2.5,2.5-4.6,4.2-6.2
	c1.7-1.6,3.6-2.7,5.4-3.4c3.6-1.4,6.8-1.3,8.8-0.9c0.5,0.1,1,0.2,1.4,0.3s0.7,0.2,0.9,0.3c0.5,0.2,0.8,0.2,0.8,0.2
	c0.3,0.1,0.4,0.4,0.3,0.6C329,328.8,328.6,329,328.4,328.9L328.4,328.9z"/>
<linearGradient id="SVGID_7_" gradientUnits="userSpaceOnUse" x1="-41.1275" y1="462.0001" x2="103.0718" y2="378.7467" gradientTransform="matrix(-1 0 0 1 578.2449 2.4)">
	<stop  offset="0" style="stop-color:#07D2FF"/>
	<stop  offset="1" style="stop-color:#A4FFEC"/>
</linearGradient>
<path class="st6" d="M604.7,489.9c0,0-52.7-88.9-64.5-108.9c-8.9-15.1-13.3-21.3-23-21.3h-15.6h-8.1c-4.4-0.2-7.8,3.3-7.8,3.3
	c12.3-11.4,23.6,10.2,29.7,20.4c3.3,5.6,41.5,74.3,54.9,98.3c2.8,5.1,8.1,8.2,13.9,8.2H604.7z"/>
<linearGradient id="SVGID_8_" gradientUnits="userSpaceOnUse" x1="517.05" y1="422.35" x2="604.6065" y2="422.35" gradientTransform="matrix(1 0 0 1 0 2.4)">
	<stop  offset="0" style="stop-color:#07D2FF"/>
	<stop  offset="1" style="stop-color:#A4FFEC"/>
</linearGradient>
<path class="st7" d="M604.5,489.9c0,0-20.5-34.2-41-68.5c-5.1-8.6-10.3-17.1-15-25.2c-2.4-4-4.7-7.9-6.8-11.6
	c-2.2-3.7-4.2-7.2-6.1-10.4c-2-3.2-3.9-6-5.9-8.3s-4.1-3.9-6-4.8c-2-0.9-3.7-1.2-4.8-1.3c-1.2-0.1-1.8-0.1-1.8-0.1v-0.1
	c0,0,0.6,0,1.8,0c1.2,0.1,2.9,0.3,4.9,1.2c2,0.9,4.2,2.5,6.3,4.8c2.1,2.3,4,5.1,6.1,8.2c2,3.2,4.1,6.6,6.3,10.3
	c2.2,3.7,4.5,7.6,6.9,11.6c4.8,8,9.8,16.7,14.8,25.3C584.3,455.5,604.5,489.9,604.5,489.9L604.5,489.9z"/>
<linearGradient id="SVGID_9_" gradientUnits="userSpaceOnUse" x1="485.35" y1="422.2577" x2="604.55" y2="422.2577" gradientTransform="matrix(1 0 0 1 0 2.4)">
	<stop  offset="0" style="stop-color:#07D2FF"/>
	<stop  offset="1" style="stop-color:#A4FFEC"/>
</linearGradient>
<path class="st8" d="M493.3,359.7c-0.4,0-0.7,0-1.1,0s-0.7,0.1-1.1,0.2c-0.2,0-0.3,0.1-0.5,0.1c-0.2,0.1-0.3,0.1-0.5,0.2
	c-0.3,0.1-0.7,0.3-1,0.4c-1.3,0.6-2.5,1.4-3.5,2.4l-0.2-0.2c1.5-1.4,3.2-2.6,5.2-3.1c2-0.6,4.2-0.2,6,0.5c1.9,0.8,3.6,2,5.1,3.4
	s2.9,2.9,4.1,4.4c2.5,3.1,4.7,6.5,6.8,10l3.1,5.2l2.9,5.2l11.7,21l11.6,21l23.3,42l2.9,5.3l1.5,2.6c0.5,0.9,0.9,1.8,1.5,2.6
	c2.2,3.3,5.7,5.7,9.6,6.5c1.9,0.5,3.9,0.4,5.9,0.4h6h12v0.1h-12h-6c-2,0-4,0.1-6-0.4c-4-0.8-7.6-3.2-9.9-6.6
	c-0.6-0.8-1.1-1.7-1.5-2.6l-1.5-2.6l-2.9-5.2l-23.5-41.8l-11.8-20.9l-11.7-20.9l-2.9-5.2l-3-5.2c-2-3.4-4.1-6.8-6.6-10
	c-1.2-1.6-2.5-3.1-4-4.4s-3-2.5-4.8-3.3s-3.8-1.1-5.7-0.6c-1.9,0.5-3.6,1.5-5.1,2.8l-0.2-0.2c1.1-1,2.3-1.8,3.7-2.4
	c0.3-0.1,0.7-0.3,1-0.4c0.2-0.1,0.4-0.1,0.5-0.1c0.2,0,0.4-0.1,0.5-0.1c0.4-0.1,0.7-0.1,1.1-0.1s0.7,0,1.1,0L493.3,359.7z"/>
<linearGradient id="SVGID_10_" gradientUnits="userSpaceOnUse" x1="370.2107" y1="434.822" x2="418.9063" y2="350.4786" gradientTransform="matrix(1 0 0 1 0 2.4)">
	<stop  offset="0" style="stop-color:#07D2FF"/>
	<stop  offset="1" style="stop-color:#A4FFEC"/>
</linearGradient>
<path class="st9" d="M437.4,466.3h7.3c0,0,21.1-0.1,28.4-8.8c-23.8,19.5-68.2-88.9-80-108.9c-8.9-15.1-13.3-21.3-23-21.3h-39.6
	c0,0-8.8-0.9-11.9,1c14.3-4.4,22.9,10.9,32.2,28.6c5.3,10,25.6,55.1,44.6,86.3C408.7,465.1,420.8,466.3,437.4,466.3z"/>
<linearGradient id="SVGID_11_" gradientUnits="userSpaceOnUse" x1="369.85" y1="391.1548" x2="472.95" y2="391.1548" gradientTransform="matrix(1 0 0 1 0 2.4)">
	<stop  offset="0" style="stop-color:#07D2FF"/>
	<stop  offset="1" style="stop-color:#A4FFEC"/>
</linearGradient>
<path class="st10" d="M473,457.5c0,0-0.1,0.1-0.4,0.3c-0.3,0.2-0.6,0.5-1.2,0.8c-1.1,0.7-3,1.4-5.4,1.3c-1.2-0.1-2.6-0.4-3.9-0.9
	c-1.4-0.6-2.8-1.3-4.2-2.3c-2.8-1.9-5.6-4.5-8.4-7.6s-5.6-6.6-8.4-10.4s-5.5-8.1-8.2-12.5c-5.4-8.8-10.6-18.5-15.6-28.3
	s-9.8-19.7-14.3-29c-2.2-4.6-4.4-9.1-6.5-13.4c-1.1-2.1-2.1-4.2-3.2-6.1s-2.2-3.8-3.3-5.5c-2.1-3.5-4.2-6.7-6.3-9.3
	c-1-1.3-2.1-2.4-3.2-3.4c-1.1-0.9-2.2-1.7-3.3-2.2c-2.1-1.1-4-1.4-5.3-1.6c-0.6-0.1-1.1-0.1-1.5-0.1c-0.3,0-0.5,0-0.5,0v-0.1
	c0,0,0.2,0,0.5,0s0.8,0,1.5,0.1c1.3,0.1,3.2,0.4,5.4,1.5c1.1,0.5,2.2,1.3,3.3,2.2c1.1,1,2.2,2.1,3.3,3.4c2.2,2.6,4.2,5.8,6.4,9.3
	c1.1,1.8,2.2,3.6,3.3,5.5c1.1,1.9,2.2,4,3.3,6.1c2.2,4.2,4.4,8.7,6.6,13.3c4.5,9.3,9.4,19.1,14.5,28.9c2.5,4.9,5.1,9.7,7.8,14.5
	c2.7,4.7,5.3,9.3,8,13.7s5.4,8.6,8.1,12.4c2.7,3.9,5.4,7.4,8.1,10.5s5.5,5.7,8.2,7.6s5.4,3.1,7.8,3.3c2.4,0.2,4.2-0.5,5.3-1.1
	c0.6-0.3,1-0.6,1.2-0.8C472.8,457.5,473,457.4,473,457.5L473,457.5z"/>
<linearGradient id="SVGID_12_" gradientUnits="userSpaceOnUse" x1="473.0797" y1="394.6468" x2="317.9621" y2="394.6468" gradientTransform="matrix(1 0 0 1 0 2.4)">
	<stop  offset="0" style="stop-color:#07D2FF"/>
	<stop  offset="1" style="stop-color:#A4FFEC"/>
</linearGradient>
<path class="st11" d="M318.1,328.2c0,0,0.2-0.1,0.6-0.2c0.4-0.1,1.1-0.3,1.9-0.4c1.7-0.3,4.3-0.4,7.3,0.6c1.5,0.5,3.1,1.4,4.7,2.6
	s3.1,2.6,4.6,4.3c2.9,3.4,5.7,7.6,8.4,12.3c2.7,4.8,5.6,9.9,8.3,15.6c2.8,5.6,5.6,11.6,8.6,17.7s6.1,12.5,9.3,18.9
	c3.2,6.4,6.5,12.9,9.9,19.3s6.9,12.8,10.5,19c0.9,1.5,1.8,3.1,2.7,4.6c0.9,1.5,1.9,3,2.8,4.5c2,2.8,4.1,5.6,6.5,8s4.9,4.6,7.8,6.2
	c2.8,1.6,5.8,2.8,8.8,3.5s6,1.1,9,1.2c2.9,0.2,5.8,0.2,8.5,0.2c1.4,0,2.7,0,4,0s2.6,0,3.8,0c2.5-0.1,4.8-0.3,7-0.6
	c4.4-0.6,8.2-1.6,11.1-2.7c3-1.1,5.1-2.4,6.4-3.5c0.4-0.2,0.6-0.5,0.8-0.7c0.2-0.2,0.4-0.4,0.6-0.6c0.3-0.3,0.5-0.5,0.5-0.5l0.1,0.1
	c0,0-0.2,0.2-0.5,0.5c-0.2,0.2-0.3,0.4-0.6,0.6c-0.2,0.2-0.5,0.5-0.8,0.8c-1.3,1.1-3.5,2.4-6.4,3.6c-3,1.2-6.8,2.1-11.1,2.8
	c-2.2,0.3-4.6,0.6-7,0.7c-1.2,0.1-2.5,0.1-3.8,0.1s-2.6,0-4,0c-2.7,0-5.6,0-8.5-0.1s-6-0.4-9.1-1.2c-3.1-0.7-6.1-1.9-9-3.5
	s-5.5-3.9-7.9-6.3c-2.5-2.4-4.5-5.2-6.6-8.1c-1-1.5-1.9-2.9-2.9-4.5c-0.9-1.5-1.8-3.1-2.8-4.6c-3.6-6.2-7.2-12.5-10.7-18.9
	c-6.9-12.8-13.4-25.8-19.4-38.1c-3-6.2-5.8-12.1-8.5-17.7s-5.4-10.9-8.1-15.6s-5.4-9-8.2-12.3c-2.9-3.3-6-5.8-8.9-6.9
	c-3-1.1-5.5-1-7.2-0.8c-0.8,0.1-1.5,0.3-1.9,0.4C318.4,328.3,318.1,328.3,318.1,328.2L318.1,328.2z"/>
<path class="st12" d="M594,542.8l-7.2-12.4l-7.2,12.4H594z M521.5,542.8l-7.2-12.4l-7.2,12.4H521.5z M544.7,536.6L544.7,536.6
	c0-3.5-2.8-6.2-6.2-6.2c-3.5,0-6.2,2.8-6.2,6.2c0,3.5,2.8,6.2,6.2,6.2C542,542.8,544.7,540.1,544.7,536.6 M568.9,530.3h-12.5v12.5
	h12.5V530.3z M496.4,530.3h-12.5v12.5h12.5V530.3z M461.2,529.1v-1.4h15.5v1.4h-7v17.5h-1.5v-17.5H461.2z M447,546.6v-18.9h10.4v1.4
	h-9v7.2h8.1v1.4h-8.1v7.5h9.3v1.4H447z M426.9,529.1v-1.4h15.5v1.4h-7v17.5h-1.5v-17.5H426.9z M416.5,536.6v8.6
	c1.7,0.1,2.6,0.1,2.8,0.1c3.7,0,5.8-1.6,5.8-4.6c0-2.7-2-4.3-5.6-4.3C418.4,536.4,417.4,536.5,416.5,536.6 M416.5,527.7v7.5
	c1.3-0.1,2.4-0.1,3-0.1c4.7,0,7.1,2.1,7.1,5.6c0,3.9-2.7,6.1-7.5,6.1c-0.6,0-1.3,0-2.3,0c-0.9,0-1.6,0-2,0v-18.9L416.5,527.7
	L416.5,527.7z M406.2,546.6v-17.5h-7.9l-0.3,3.6c-0.5,4.9-1.1,8.5-1.9,10.5c-0.4,0.9-0.8,1.7-1.3,2.3c-1,1-1.8,1.2-2.8,1.1v-1.5
	c0.7,0,1.1,0,1.9-1c0.4-0.5,0.8-1.2,1.1-2.2c0.7-1.8,1.3-5.6,1.7-10.5l0.3-3.8h10.8v18.9L406.2,546.6L406.2,546.6z M390.6,527.7
	l-6.6,14.7c-1.3,3-2.6,4.3-4.4,4.3c-0.9,0-1.6-0.2-2.1-0.7l0.6-1.2c0.5,0.4,1,0.5,1.5,0.5c1,0,1.9-0.8,2.6-2.4l0.4-0.8l-8.7-14.4
	h1.7l7.8,12.9l5.8-12.9H390.6L390.6,527.7z M371.3,527.7l-8.9,8.9l9.3,9.9h-1.9l-9.2-9.8l8.9-9.1L371.3,527.7L371.3,527.7z
	 M358.2,527.7h1.5v18.9h-1.5V527.7z M344.4,529.6l-4,9.2h7.9L344.4,529.6z M335.6,546.6l8.2-19.1h1.2l8.2,19.1h-1.6l-2.7-6.4h-9.1
	l-2.7,6.4H335.6z M323.9,530.7v12.2h0.2c4.6,0,7.6-2.2,7.6-6.1S328.7,530.7,323.9,530.7L323.9,530.7z M316.8,541.4
	c1.4,1,3.2,1.6,5.5,1.6h0.1v-12.2h-0.1c-2.4,0-4.2,0.6-5.6,1.6c-1.4,1-2.1,2.6-2.1,4.4C314.7,538.9,315.4,540.4,316.8,541.4
	 M322.4,546.8v-2.5h-0.1c-2.7,0-4.9-0.7-6.6-2c-1.6-1.3-2.5-3.1-2.5-5.5c0-2.4,0.9-4.2,2.5-5.5c1.7-1.3,3.9-2,6.7-2l0,0v-1.9h1.5
	v1.9h0.1c2.8,0,5.1,0.7,6.7,2c1.7,1.3,2.6,3.1,2.6,5.5c0,2.4-0.9,4.2-2.6,5.5c-1.7,1.3-3.9,2-6.6,2h-0.2v2.5H322.4z M583.7,494.4
	c0,1.1,0.5,1.5,1.9,1.5c1.3,0,1.8-0.3,1.8-1.5h4.5c0,1.5-0.5,2.6-1.7,3.4c-1.1,0.8-2.6,1.4-4.5,1.4c-4,0-6.4-1.9-6.4-4.8
	L583.7,494.4L583.7,494.4z M581.4,518.6h-3.8v-18.9h4.4v11.7l8.3-11.7h3.8v18.9h-4.4v-11.7L581.4,518.6z M558.7,518.6h-3.8v-18.9
	h4.4v11.7l8.3-11.7h3.8v18.9H567v-11.7L558.7,518.6z M534.9,518.6v-18.9h4.4v8.2l6.1-8.2h5.2l-7.1,8.7l7.7,10.2h-5.5l-6.4-9v9H534.9
	z M530.5,516.7c-0.6,0.7-1.4,1.2-2.6,1.6s-2.4,0.6-3.6,0.6c-2.9,0-5.3-0.9-7.2-2.6c-1.8-1.8-2.7-4.2-2.7-7.1c0-2.8,0.9-5.2,2.6-7
	c1.7-1.8,4.2-2.7,7.3-2.7c2.4,0,4.6,0.9,5.8,2l-1.9,3.2c-1.2-0.8-2.6-1.1-3.9-1.1c-1.5,0-2.8,0.5-3.8,1.5c-1,1-1.5,2.4-1.5,4.3
	c0,1.7,0.6,3,1.6,4.2c1,1,2.5,1.6,4.2,1.6c1.5,0,2.9-0.5,4.1-1.4L530.5,516.7z M499,518.6v-18.9h11.2v4.1h-6.9v3.3h6.1v4.1h-6.1v3.4
	h7.2v4.1L499,518.6L499,518.6z M492.8,499.7v18.9h-4.4v-7.2c-0.9,0.8-2.3,1.1-4.1,1.1c-2.7,0-5.8-1.4-5.8-6.1v-6.7h4.4v5.5
	c0,2.6,1,3.3,2.6,3.3c1,0,2-0.3,2.9-1v-7.8L492.8,499.7L492.8,499.7z M460.2,518.6h-3.8v-18.9h4.4v11.7l8.3-11.7h3.8v18.9h-4.4
	v-11.7L460.2,518.6z M436.8,503.8v-4.1h15.7v4.1h-5.7v14.9h-4.4v-14.9H436.8z M426.6,505.3l-2.2,5.4h4.3L426.6,505.3z M417,518.6
	l7.9-18.9h3.9l7.9,18.9h-4.6l-1.6-4h-7.5l-1.6,4H417z M393.4,518.6v-18.9h4.4l5.9,7.9l5.5-7.9h4.1v18.9h-4.4v-12l-5.3,7.4H403
	l-5.2-7.3v11.9L393.4,518.6L393.4,518.6z M376.6,518.6v-18.9h11.2v4.1h-6.9v3.3h6.1v4.1h-6.1v3.4h7.2v4.1L376.6,518.6L376.6,518.6z
	 M356.8,503.8v-4.1h15.7v4.1h-5.7v14.9h-4.4v-14.9H356.8z M346.8,505.3l-2.2,5.4h4.3L346.8,505.3z M337.2,518.6l7.9-18.9h3.9
	l7.9,18.9h-4.6l-1.6-4H343l-1.6,4H337.2z M313.6,518.6v-18.9h4.4l5.9,7.9l5.5-7.9h4.1v18.9H329v-12l-5.3,7.4h-0.7l-5.2-7.3v11.9
	L313.6,518.6L313.6,518.6z"/>
</svg>
