<?xml version="1.0" encoding="utf-8"?>
<!-- Generator: Adobe Illustrator 19.0.0, SVG Export Plug-In . SVG Version: 6.00 Build 0)  -->
<svg version="1.1" id="Layer_1" xmlns="http://www.w3.org/2000/svg"  x="0px" y="0px"
	 viewBox="0 0 287.3 57" style="enable-background:new 0 0 287.3 57;" xml:space="preserve">
<style type="text/css">
	.st0{fill:#FFFFFF;}
</style>
<path class="st0" d="M283.7,49.5l-7.2-12.4l-7.2,12.4H283.7z M211.2,49.5L204,37.1l-7.2,12.4H211.2z M234.4,43.3L234.4,43.3
	c0-3.5-2.8-6.2-6.2-6.2c-3.5,0-6.2,2.8-6.2,6.2c0,3.5,2.8,6.2,6.2,6.2C231.7,49.5,234.4,46.8,234.4,43.3 M258.6,37h-12.5v12.5h12.5
	V37z M186.1,37h-12.5v12.5h12.5V37z M150.9,35.8v-1.4h15.5v1.4h-7v17.5h-1.5V35.8H150.9z M136.7,53.3V34.4h10.4v1.4h-9V43h8.1v1.4
	h-8.1v7.5h9.3v1.4L136.7,53.3L136.7,53.3z M116.6,35.8v-1.4h15.5v1.4h-7v17.5h-1.5V35.8H116.6z M106.2,43.3v8.6
	c1.7,0.1,2.6,0.1,2.8,0.1c3.7,0,5.8-1.6,5.8-4.6c0-2.7-2-4.3-5.6-4.3C108.1,43.1,107.1,43.2,106.2,43.3 M106.2,34.4v7.5
	c1.3-0.1,2.4-0.1,3-0.1c4.7,0,7.1,2.1,7.1,5.6c0,3.9-2.7,6.1-7.5,6.1c-0.6,0-1.3,0-2.3,0c-0.9,0-1.6,0-2,0V34.6L106.2,34.4
	L106.2,34.4z M95.9,53.3V35.8H88l-0.3,3.6c-0.5,4.9-1.1,8.5-1.9,10.5c-0.4,0.9-0.8,1.7-1.3,2.3c-1,1-1.8,1.2-2.8,1.1v-1.5
	c0.7,0,1.1,0,1.9-1c0.4-0.5,0.8-1.2,1.1-2.2c0.7-1.8,1.3-5.6,1.7-10.5l0.3-3.8h10.8v18.9L95.9,53.3L95.9,53.3z M80.3,34.4l-6.6,14.7
	c-1.3,3-2.6,4.3-4.4,4.3c-0.9,0-1.6-0.2-2.1-0.7l0.6-1.2c0.5,0.4,1,0.5,1.5,0.5c1,0,1.9-0.8,2.6-2.4l0.4-0.8l-8.7-14.4h1.7l7.8,12.9
	l5.8-12.9L80.3,34.4L80.3,34.4z M61,34.4l-8.9,8.9l9.3,9.9h-1.9l-9.2-9.8l8.9-9.1L61,34.4L61,34.4z M47.9,34.4h1.5v18.9h-1.5V34.4z
	 M34.1,36.3l-4,9.2H38L34.1,36.3z M25.3,53.3l8.2-19.1h1.2l8.2,19.1h-1.6l-2.7-6.4h-9.1l-2.7,6.4H25.3z M13.6,37.4v12.2h0.2
	c4.6,0,7.6-2.2,7.6-6.1S18.4,37.4,13.6,37.4L13.6,37.4z M6.5,48.1c1.4,1,3.2,1.6,5.5,1.6h0.1V37.5H12c-2.4,0-4.2,0.6-5.6,1.6
	s-2.1,2.6-2.1,4.4C4.4,45.6,5.1,47.1,6.5,48.1 M12.1,53.5V51H12c-2.7,0-4.9-0.7-6.6-2c-1.6-1.3-2.5-3.1-2.5-5.5s0.9-4.2,2.5-5.5
	c1.7-1.3,3.9-2,6.7-2l0,0v-1.9h1.5V36h0.1c2.8,0,5.1,0.7,6.7,2c1.7,1.3,2.6,3.1,2.6,5.5s-0.9,4.2-2.6,5.5s-3.9,2-6.6,2h-0.2v2.5
	H12.1z M273.4,1.1c0,1.1,0.5,1.5,1.9,1.5c1.3,0,1.8-0.3,1.8-1.5h4.5c0,1.5-0.5,2.6-1.7,3.4c-1.1,0.8-2.6,1.4-4.5,1.4
	c-4,0-6.4-1.9-6.4-4.8H273.4L273.4,1.1z M271.1,25.3h-3.8V6.4h4.4v11.7L280,6.4h3.8v18.9h-4.4V13.6L271.1,25.3z M248.4,25.3h-3.8
	V6.4h4.4v11.7l8.3-11.7h3.8v18.9h-4.4V13.6L248.4,25.3z M224.6,25.3V6.4h4.4v8.2l6.1-8.2h5.2l-7.1,8.7l7.7,10.2h-5.5l-6.4-9v9H224.6
	z M220.2,23.4c-0.6,0.7-1.4,1.2-2.6,1.6s-2.4,0.6-3.6,0.6c-2.9,0-5.3-0.9-7.2-2.6c-1.8-1.8-2.7-4.2-2.7-7.1c0-2.8,0.9-5.2,2.6-7
	c1.7-1.8,4.2-2.7,7.3-2.7c2.4,0,4.6,0.9,5.8,2l-1.9,3.2c-1.2-0.8-2.6-1.1-3.9-1.1c-1.5,0-2.8,0.5-3.8,1.5s-1.5,2.4-1.5,4.3
	c0,1.7,0.6,3,1.6,4.2c1,1,2.5,1.6,4.2,1.6c1.5,0,2.9-0.5,4.1-1.4L220.2,23.4z M188.7,25.3V6.4h11.2v4.1H193v3.3h6.1v4.1H193v3.4h7.2
	v4.1L188.7,25.3L188.7,25.3z M182.5,6.4v18.9h-4.4v-7.2c-0.9,0.8-2.3,1.1-4.1,1.1c-2.7,0-5.8-1.4-5.8-6.1V6.4h4.4v5.5
	c0,2.6,1,3.3,2.6,3.3c1,0,2-0.3,2.9-1V6.4L182.5,6.4L182.5,6.4z M149.9,25.3h-3.8V6.4h4.4v11.7l8.3-11.7h3.8v18.9h-4.4V13.6
	L149.9,25.3z M126.5,10.5V6.4h15.7v4.1h-5.7v14.9h-4.4V10.5L126.5,10.5L126.5,10.5z M116.3,12l-2.2,5.4h4.3L116.3,12z M106.7,25.3
	l7.9-18.9h3.9l7.9,18.9h-4.6l-1.6-4h-7.5l-1.6,4H106.7z M83.1,25.3V6.4h4.4l5.9,7.9l5.5-7.9h4.1v18.9h-4.4v-12l-5.3,7.4h-0.6
	l-5.2-7.3v11.9L83.1,25.3L83.1,25.3z M66.3,25.3V6.4h11.2v4.1h-6.9v3.3h6.1v4.1h-6.1v3.4h7.2v4.1L66.3,25.3L66.3,25.3z M46.5,10.5
	V6.4h15.7v4.1h-5.7v14.9h-4.4V10.5L46.5,10.5L46.5,10.5z M36.5,12l-2.2,5.4h4.3L36.5,12z M26.9,25.3l7.9-18.9h3.9l7.9,18.9H42
	l-1.6-4h-7.7l-1.6,4H26.9z M3.3,25.3V6.4h4.4l5.9,7.9l5.5-7.9h4.1v18.9h-4.5v-12l-5.3,7.4h-0.7l-5.2-7.3v11.9L3.3,25.3L3.3,25.3z"/>
</svg>
