<?xml version="1.0" encoding="utf-8"?>
<!-- Generator: Adobe Illustrator 19.1.0, SVG Export Plug-In . SVG Version: 6.00 Build 0)  -->
<!DOCTYPE svg PUBLIC "-//W3C//DTD SVG 1.1//EN" "http://www.w3.org/Graphics/SVG/1.1/DTD/svg11.dtd">
<svg version="1.1" id="Layer_1" xmlns="http://www.w3.org/2000/svg"  x="0px" y="0px"
	 viewBox="0 0 612 350.8" enable-background="new 0 0 612 350.8" xml:space="preserve">
<linearGradient id="SVGID_1_" gradientUnits="userSpaceOnUse" x1="145.2271" y1="129.0993" x2="234.1989" y2="180.4672" gradientTransform="matrix(-1 0 0 1 578.2449 0)">
	<stop  offset="0" style="stop-color:#183E94"/>
	<stop  offset="1" style="stop-color:#07B2FB"/>
</linearGradient>
<path fill="url(#SVGID_1_)" d="M359.4,207h8.6c10.5,0,19.8-6.5,23.4-16.4l29.8-82l-13.6-4.9c-5.3-1.9-11.1,0.8-13,6.1L359.4,207z"/>
<linearGradient id="SVGID_2_" gradientUnits="userSpaceOnUse" x1="421.3927" y1="157.8784" x2="359.0841" y2="157.8784">
	<stop  offset="0" style="stop-color:#183E94"/>
	<stop  offset="1" style="stop-color:#07D2FB"/>
</linearGradient>
<path fill="url(#SVGID_2_)" d="M359.1,207c0,0,2,0,5.4,0c1.7,0,3.8,0.1,6.2-0.2c2.4-0.3,5-1,7.7-2.3c2.7-1.3,5.3-3.2,7.5-5.7
	c2.2-2.5,4.1-5.6,5.2-9.1c2.5-7,5.2-14.4,7.8-21.8c2.7-7.4,5.3-14.9,7.8-21.8c1.3-3.5,2.5-6.8,3.7-10c1.2-3.2,2.3-6.2,3.3-9
	c4.2-11.1,7.1-18.4,7.1-18.4l0.1,0c0,0-2.5,7.5-6.4,18.7c-1,2.8-2.1,5.8-3.2,9c-1.1,3.2-2.4,6.5-3.6,10c-2.5,7-5.3,14.3-8,21.7
	c-2.7,7.4-5.5,14.8-8,21.7c-1.2,3.5-3.1,6.7-5.4,9.2c-2.3,2.5-5,4.4-7.7,5.7c-2.7,1.3-5.4,1.9-7.8,2.2c-2.4,0.3-4.5,0.2-6.2,0.2
	c-3.5,0-5.4,0-5.4,0V207z"/>
<linearGradient id="SVGID_3_" gradientUnits="userSpaceOnUse" x1="359.0342" y1="155.0168" x2="407.3984" y2="155.0168">
	<stop  offset="0" style="stop-color:#183E94"/>
	<stop  offset="1" style="stop-color:#07D2FB"/>
</linearGradient>
<path fill="url(#SVGID_3_)" d="M407.3,103.8c0,0-0.1,0-0.3-0.1c-0.2,0-0.5-0.2-1-0.2c-0.8-0.2-2.1-0.3-3.7,0c-1.6,0.3-3.4,1-5.1,2.6
	c-0.8,0.7-1.5,1.7-2.1,2.8c-0.5,1.1-0.9,2.4-1.4,3.7c-0.9,2.6-1.9,5.5-3,8.5c-1.1,3-2.2,6.2-3.4,9.5c-2.4,6.6-5,13.6-7.6,20.6
	c-10.3,28-20.7,56-20.7,56c0,0,0,0-0.1,0c0,0,0,0,0-0.1c0,0,10-28.1,20-56.2c2.5-7,5-14.1,7.4-20.6c1.2-3.3,2.3-6.5,3.5-9.5
	c1.1-3,2.2-5.8,3.2-8.5c0.5-1.3,0.9-2.6,1.5-3.8c0.6-1.2,1.4-2.2,2.3-2.9c0.9-0.8,1.8-1.3,2.7-1.7c0.9-0.4,1.8-0.6,2.7-0.7
	c1.7-0.2,3,0,3.8,0.2c0.4,0.1,0.7,0.2,1,0.3C407.3,103.6,407.4,103.7,407.3,103.8C407.4,103.7,407.4,103.7,407.3,103.8
	C407.4,103.8,407.4,103.8,407.3,103.8z"/>
<linearGradient id="SVGID_4_" gradientUnits="userSpaceOnUse" x1="278.6501" y1="136.3147" x2="480.5531" y2="252.8834" gradientTransform="matrix(-1 0 0 1 578.2449 0)">
	<stop  offset="0" style="stop-color:#183E94"/>
	<stop  offset="1" style="stop-color:#07D2FB"/>
</linearGradient>
<path fill="url(#SVGID_4_)" d="M133.7,315.3h32.5c10.4,0,19.7-6.5,23.3-16.3l78.9-216.8l-28.5-10.4c-8.5-3.1-18,1.3-21.1,9.8
	L133.7,315.3z"/>
<linearGradient id="SVGID_5_" gradientUnits="userSpaceOnUse" x1="133.4559" y1="198.7993" x2="268.159" y2="198.7993">
	<stop  offset="0" style="stop-color:#183E94"/>
	<stop  offset="1" style="stop-color:#07D2FB"/>
</linearGradient>
<path fill="url(#SVGID_5_)" d="M133.5,315.2c0,0,4.6,0,12.6,0c4,0,8.9,0,14.5,0c1.4,0,2.8,0,4.3,0c1.5,0,3,0,4.5-0.3
	c3.1-0.4,6.2-1.5,9.2-3.3c1.4-0.9,2.9-1.9,4.2-3.2c1.3-1.2,2.5-2.6,3.5-4.1c1-1.5,1.9-3.2,2.6-5c0.7-1.8,1.3-3.6,2-5.5
	c2.7-7.4,5.5-15.2,8.4-23.3c5.8-16.2,12.1-33.4,18.3-50.7c6.2-17.2,12.5-34.5,18.3-50.7c2.9-8.1,5.8-15.9,8.5-23.3
	c2.7-7.4,5.3-14.4,7.7-20.8c4.8-12.9,8.7-23.7,11.5-31.2c2.8-7.5,4.4-11.8,4.4-11.8l0.1,0c0,0-1.5,4.3-4.2,11.9
	c-2.7,7.6-6.6,18.3-11.2,31.3c-2.3,6.5-4.8,13.5-7.5,20.9c-2.7,7.4-5.5,15.2-8.5,23.3c-5.9,16.1-12.2,33.4-18.5,50.6
	c-6.3,17.2-12.6,34.4-18.5,50.6c-3,8.1-5.8,15.9-8.5,23.3c-0.7,1.8-1.3,3.7-2,5.5c-0.7,1.8-1.6,3.5-2.7,5c-1,1.6-2.3,2.9-3.6,4.2
	c-1.3,1.2-2.8,2.3-4.2,3.2c-3,1.7-6.2,2.8-9.3,3.3c-1.6,0.2-3.1,0.3-4.6,0.2c-1.5,0-2.9,0-4.3,0c-5.6,0-10.5,0-14.5,0
	C138,315.3,133.5,315.3,133.5,315.2L133.5,315.2z"/>
<linearGradient id="SVGID_6_" gradientUnits="userSpaceOnUse" x1="240.0893" y1="192.8082" x2="132.957" y2="192.8082">
	<stop  offset="0" style="stop-color:#183E94"/>
	<stop  offset="1" style="stop-color:#07D2FB"/>
</linearGradient>
<path fill="url(#SVGID_6_)" d="M239.4,72.3c0,0-0.3-0.1-0.8-0.2c-0.2-0.1-0.6-0.2-0.9-0.3c-0.4-0.1-0.8-0.2-1.2-0.2
	c-1.9-0.3-4.9-0.4-8.3,0.8c-1.7,0.6-3.5,1.7-5.1,3.2c-1.6,1.5-3.1,3.4-4,5.8c-1.8,4.9-3.8,10.4-6.1,16.5
	c-8.8,24.2-20.6,56.4-32.4,88.6c-23.6,64.4-47.2,128.9-47.2,128.9s23.4-64.5,46.7-129c11.7-32.3,23.4-64.5,32.1-88.7
	c2.2-6,4.2-11.6,6-16.5c1-2.5,2.5-4.6,4.2-6.2c1.7-1.6,3.6-2.7,5.4-3.4c3.6-1.4,6.8-1.3,8.8-0.9c0.5,0.1,1,0.2,1.4,0.3
	c0.4,0.1,0.7,0.2,0.9,0.3c0.5,0.2,0.8,0.2,0.8,0.2c0.3,0.1,0.4,0.4,0.3,0.6C240,72.2,239.7,72.4,239.4,72.3L239.4,72.3z"/>
<linearGradient id="SVGID_7_" gradientUnits="userSpaceOnUse" x1="47.7786" y1="207.829" x2="192.0339" y2="124.5432" gradientTransform="matrix(-1 0 0 1 578.2449 0)">
	<stop  offset="0" style="stop-color:#07D2FF"/>
	<stop  offset="1" style="stop-color:#A4FFEC"/>
</linearGradient>
<path fill="url(#SVGID_7_)" d="M515.7,233.3c0,0-52.7-88.9-64.5-108.9c-8.9-15.1-13.3-21.3-23-21.3h-15.6h-8.1
	c-4.4-0.2-7.8,3.3-7.8,3.3c12.3-11.4,23.6,10.2,29.7,20.4c3.3,5.6,41.5,74.3,54.9,98.3c2.8,5.1,8.1,8.2,13.9,8.2L515.7,233.3z"/>
<linearGradient id="SVGID_8_" gradientUnits="userSpaceOnUse" x1="428.0438" y1="168.1966" x2="515.6003" y2="168.1966">
	<stop  offset="0" style="stop-color:#07D2FF"/>
	<stop  offset="1" style="stop-color:#A4FFEC"/>
</linearGradient>
<path fill="url(#SVGID_8_)" d="M515.5,233.3c0,0-20.5-34.2-41-68.5c-5.1-8.6-10.3-17.1-15-25.2c-2.4-4-4.7-7.9-6.8-11.6
	c-2.2-3.7-4.2-7.2-6.1-10.4c-2-3.2-3.9-6-5.9-8.3c-2-2.3-4.1-3.9-6-4.8c-2-0.9-3.7-1.2-4.8-1.3c-1.2-0.1-1.8-0.1-1.8-0.1V103
	c0,0,0.6,0,1.8,0c1.2,0.1,2.9,0.3,4.9,1.2c2,0.9,4.2,2.5,6.3,4.8c2.1,2.3,4,5.1,6.1,8.2c2,3.2,4.1,6.6,6.3,10.3
	c2.2,3.7,4.5,7.6,6.9,11.6c4.8,8,9.8,16.7,14.8,25.3C495.4,198.9,515.6,233.3,515.5,233.3L515.5,233.3z"/>
<linearGradient id="SVGID_9_" gradientUnits="userSpaceOnUse" x1="396.3778" y1="168.1788" x2="515.5573" y2="168.1788">
	<stop  offset="0" style="stop-color:#07D2FF"/>
	<stop  offset="1" style="stop-color:#A4FFEC"/>
</linearGradient>
<path fill="url(#SVGID_9_)" d="M404.3,103.1c-0.4,0-0.7,0-1.1,0c-0.4,0-0.7,0.1-1.1,0.2c-0.2,0-0.3,0.1-0.5,0.1
	c-0.2,0.1-0.3,0.1-0.5,0.2c-0.3,0.1-0.7,0.3-1,0.4c-1.3,0.6-2.5,1.4-3.5,2.4l-0.2-0.2c1.5-1.4,3.2-2.6,5.2-3.1c2-0.6,4.2-0.2,6,0.5
	c1.9,0.8,3.6,2,5.1,3.4c1.5,1.4,2.9,2.9,4.1,4.4c2.5,3.1,4.7,6.5,6.8,10l3.1,5.2l2.9,5.2l11.7,21l11.6,21l23.3,42l2.9,5.3l1.5,2.6
	c0.5,0.9,0.9,1.8,1.5,2.6c2.2,3.3,5.7,5.7,9.6,6.5c1.9,0.5,3.9,0.4,5.9,0.4l6,0l12,0v0.1l-12,0l-6,0c-2,0-4,0.1-6-0.4
	c-4-0.8-7.6-3.2-9.9-6.6c-0.6-0.8-1.1-1.7-1.5-2.6l-1.5-2.6l-2.9-5.2l-23.5-41.8l-11.8-20.9l-11.7-20.9l-2.9-5.2l-3-5.2
	c-2-3.4-4.1-6.8-6.6-10c-1.2-1.6-2.5-3.1-4-4.4c-1.5-1.3-3-2.5-4.8-3.3c-1.8-0.8-3.8-1.1-5.7-0.6c-1.9,0.5-3.6,1.5-5.1,2.8l-0.2-0.2
	c1.1-1,2.3-1.8,3.7-2.4c0.3-0.1,0.7-0.3,1-0.4c0.2-0.1,0.4-0.1,0.5-0.1c0.2,0,0.4-0.1,0.5-0.1c0.4-0.1,0.7-0.1,1.1-0.1
	c0.4,0,0.7,0,1.1,0L404.3,103.1z"/>
<linearGradient id="SVGID_10_" gradientUnits="userSpaceOnUse" x1="281.1505" y1="180.5296" x2="329.8315" y2="96.2118">
	<stop  offset="0" style="stop-color:#07D2FF"/>
	<stop  offset="1" style="stop-color:#A4FFEC"/>
</linearGradient>
<path fill="url(#SVGID_10_)" d="M348.4,209.7h7.3c0,0,21.1-0.1,28.4-8.8c-23.8,19.5-68.2-88.9-80-108.9c-8.9-15.1-13.3-21.3-23-21.3
	h-39.6c0,0-8.8-0.9-11.9,1c14.3-4.4,22.9,10.9,32.2,28.6c5.3,10,25.6,55.1,44.6,86.3C319.7,208.5,331.8,209.7,348.4,209.7z"/>
<linearGradient id="SVGID_11_" gradientUnits="userSpaceOnUse" x1="280.9876" y1="136.961" x2="384.0323" y2="136.961">
	<stop  offset="0" style="stop-color:#07D2FF"/>
	<stop  offset="1" style="stop-color:#A4FFEC"/>
</linearGradient>
<path fill="url(#SVGID_11_)" d="M384,200.9c0,0-0.1,0.1-0.4,0.3c-0.3,0.2-0.6,0.5-1.2,0.8c-1.1,0.7-3,1.4-5.4,1.3
	c-1.2-0.1-2.6-0.4-3.9-0.9c-1.4-0.6-2.8-1.3-4.2-2.3c-2.8-1.9-5.6-4.5-8.4-7.6c-2.8-3.1-5.6-6.6-8.4-10.4c-2.8-3.8-5.5-8.1-8.2-12.5
	c-5.4-8.8-10.6-18.5-15.6-28.3c-5-9.8-9.8-19.7-14.3-29c-2.2-4.6-4.4-9.1-6.5-13.4c-1.1-2.1-2.1-4.2-3.2-6.1
	c-1.1-1.9-2.2-3.8-3.3-5.5c-2.1-3.5-4.2-6.7-6.3-9.3c-1-1.3-2.1-2.4-3.2-3.4c-1.1-0.9-2.2-1.7-3.3-2.2c-2.1-1.1-4-1.4-5.3-1.6
	c-0.6-0.1-1.1-0.1-1.5-0.1c-0.3,0-0.5,0-0.5,0v-0.1c0,0,0.2,0,0.5,0c0.3,0,0.8,0,1.5,0.1c1.3,0.1,3.2,0.4,5.4,1.5
	c1.1,0.5,2.2,1.3,3.3,2.2c1.1,1,2.2,2.1,3.3,3.4c2.2,2.6,4.2,5.8,6.4,9.3c1.1,1.8,2.2,3.6,3.3,5.5c1.1,1.9,2.2,4,3.3,6.1
	c2.2,4.2,4.4,8.7,6.6,13.3c4.5,9.3,9.4,19.1,14.5,28.9c2.5,4.9,5.1,9.7,7.8,14.5c2.7,4.7,5.3,9.3,8,13.7c2.7,4.4,5.4,8.6,8.1,12.4
	c2.7,3.9,5.4,7.4,8.1,10.5c2.7,3.1,5.5,5.7,8.2,7.6c2.7,1.9,5.4,3.1,7.8,3.3c2.4,0.2,4.2-0.5,5.3-1.1c0.6-0.3,1-0.6,1.2-0.8
	C383.8,200.9,384,200.8,384,200.9L384,200.9z"/>
<linearGradient id="SVGID_12_" gradientUnits="userSpaceOnUse" x1="384.1297" y1="140.3283" x2="229.0121" y2="140.3283">
	<stop  offset="0" style="stop-color:#07D2FF"/>
	<stop  offset="1" style="stop-color:#A4FFEC"/>
</linearGradient>
<path fill="url(#SVGID_12_)" d="M229.1,71.6c0,0,0.2-0.1,0.6-0.2c0.4-0.1,1.1-0.3,1.9-0.4c1.7-0.3,4.3-0.4,7.3,0.6
	c1.5,0.5,3.1,1.4,4.7,2.6c1.6,1.2,3.1,2.6,4.6,4.3c2.9,3.4,5.7,7.6,8.4,12.3c2.7,4.8,5.6,9.9,8.3,15.6c2.8,5.6,5.6,11.6,8.6,17.7
	c3,6.1,6.1,12.5,9.3,18.9c3.2,6.4,6.5,12.9,9.9,19.3c3.4,6.4,6.9,12.8,10.5,19c0.9,1.5,1.8,3.1,2.7,4.6c0.9,1.5,1.9,3,2.8,4.5
	c2,2.8,4.1,5.6,6.5,8c2.4,2.4,4.9,4.6,7.8,6.2c2.8,1.6,5.8,2.8,8.8,3.5c3,0.7,6,1.1,9,1.2c2.9,0.2,5.8,0.2,8.5,0.2c1.4,0,2.7,0,4,0
	c1.3,0,2.6,0,3.8,0c2.5-0.1,4.8-0.3,7-0.6c4.4-0.6,8.2-1.6,11.1-2.7c3-1.1,5.1-2.4,6.4-3.5c0.4-0.2,0.6-0.5,0.8-0.7
	c0.2-0.2,0.4-0.4,0.6-0.6c0.3-0.3,0.5-0.5,0.5-0.5l0.1,0.1c0,0-0.2,0.2-0.5,0.5c-0.2,0.2-0.3,0.4-0.6,0.6c-0.2,0.2-0.5,0.5-0.8,0.8
	c-1.3,1.1-3.5,2.4-6.4,3.6c-3,1.2-6.8,2.1-11.1,2.8c-2.2,0.3-4.6,0.6-7,0.7c-1.2,0.1-2.5,0.1-3.8,0.1c-1.3,0-2.6,0-4,0
	c-2.7,0-5.6,0-8.5-0.1c-2.9-0.1-6-0.4-9.1-1.2c-3.1-0.7-6.1-1.9-9-3.5c-2.9-1.6-5.5-3.9-7.9-6.3c-2.5-2.4-4.5-5.2-6.6-8.1
	c-1-1.5-1.9-2.9-2.9-4.5c-0.9-1.5-1.8-3.1-2.8-4.6c-3.6-6.2-7.2-12.5-10.7-18.9c-6.9-12.8-13.4-25.8-19.4-38.1
	c-3-6.2-5.8-12.1-8.5-17.7c-2.7-5.6-5.4-10.9-8.1-15.6c-2.7-4.7-5.4-9-8.2-12.3c-2.9-3.3-6-5.8-8.9-6.9c-3-1.1-5.5-1-7.2-0.8
	c-0.8,0.1-1.5,0.3-1.9,0.4C229.4,71.7,229.2,71.7,229.1,71.6L229.1,71.6z"/>
</svg>
